HIERARCHY
ROOT Hip
{
	OFFSET 0.000000 0.000000 0.000000 
	CHANNELS 6 Xposition Yposition Zposition Xrotation Yrotation Zrotation
	JOINT LowerSpine
	{
		OFFSET 0.000000 8.345300 -5.129200 
		CHANNELS 3 Xrotation Yrotation Zrotation
		JOINT MiddleSpine
		{
			OFFSET 10.856900 0.000000 0.000000 
			CHANNELS 3 Xrotation Yrotation Zrotation
			JOINT Chest
			{
				OFFSET 15.298400 0.000000 0.000000 
				CHANNELS 3 Xrotation Yrotation Zrotation
				JOINT Neck
				{
					OFFSET 25.661800 -0.598600 0.000000 
					CHANNELS 3 Xrotation Yrotation Zrotation
					JOINT Head
					{
						OFFSET 8.882900 0.000000 0.000000 
						CHANNELS 3 Xrotation Yrotation Zrotation
						End Site
						{
							OFFSET 19.739901 0.000000 0.000000 
						}
					}
				}
				JOINT RClavicle
				{
					OFFSET 23.687799 0.000000 3.158400 
					CHANNELS 3 Xrotation Yrotation Zrotation
					JOINT RShoulder
					{
						OFFSET -15.594500 -3.948000 0.987000 
						CHANNELS 3 Xrotation Yrotation Zrotation
						JOINT RForearm
						{
							OFFSET -31.337000 0.000000 0.197400 
							CHANNELS 3 Xrotation Yrotation Zrotation
							JOINT RHand
							{
								OFFSET -26.402100 0.000000 0.000000 
								CHANNELS 3 Xrotation Yrotation Zrotation
								End Site
								{
									OFFSET -15.791900 -0.987000 0.000000 
								}
							}
						}
					}
				}
				JOINT LClavicle
				{
					OFFSET 23.687799 0.000000 -3.158400 
					CHANNELS 3 Xrotation Yrotation Zrotation
					JOINT LShoulder
					{
						OFFSET -15.594500 -3.948000 -0.987000 
						CHANNELS 3 Xrotation Yrotation Zrotation
						JOINT LForearm
						{
							OFFSET -31.337000 0.000000 -0.197400 
							CHANNELS 3 Xrotation Yrotation Zrotation
							JOINT LHand
							{
								OFFSET -26.402100 0.000000 0.000000 
								CHANNELS 3 Xrotation Yrotation Zrotation
								End Site
								{
									OFFSET -15.791900 -0.987000 0.000000 
								}
							}
						}
					}
				}
			}
		}
	}
	JOINT RThigh
	{
		OFFSET -8.882900 0.448100 0.000000 
		CHANNELS 3 Xrotation Yrotation Zrotation
		JOINT RShin
		{
			OFFSET 43.131599 0.000000 -0.493500 
			CHANNELS 3 Xrotation Yrotation Zrotation
			JOINT RFoot
			{
				OFFSET 0.000000 -44.725601 -0.404700 
				CHANNELS 3 Xrotation Yrotation Zrotation
				JOINT RToe
				{
					OFFSET 0.000000 -3.933200 12.195300 
					CHANNELS 3 Xrotation Yrotation Zrotation
					End Site
					{
						OFFSET 6.772500 0.000000 0.000000 
					}
				}
			}
		}
	}
	JOINT LThigh
	{
		OFFSET 8.882900 0.448100 0.000000 
		CHANNELS 3 Xrotation Yrotation Zrotation
		JOINT LShin
		{
			OFFSET 43.131599 0.000000 0.493500 
			CHANNELS 3 Xrotation Yrotation Zrotation
			JOINT LFoot
			{
				OFFSET 0.000000 -44.725601 0.404700 
				CHANNELS 3 Xrotation Yrotation Zrotation
				JOINT LToe
				{
					OFFSET 0.000000 -3.933200 -12.195300 
					CHANNELS 3 Xrotation Yrotation Zrotation
					End Site
					{
						OFFSET 6.772500 0.000000 0.000000 
					}
				}
			}
		}
	}
}
MOTION
Frames: 8
Frame Time: 0.012949
2.528841 92.572388 -15.969124 -1.613893 3.980770 -0.944215 -89.999992 -90.000000 0.000000 -0.119112 -0.106007 -0.595399 -0.402377 -0.338683 -1.981914 0.000000 0.000000 0.000000 0.000000 0.000000 0.000000 90.008598 -0.520474 -83.003082 21.816481 34.835205 69.349808 1.720945 18.476147 -6.200701 0.000000 0.000000 0.000000 -90.000626 0.364019 -85.107887 -14.814635 -42.176102 68.148407 -2.363670 -23.922171 -6.428271 0.000000 0.000000 0.000000 -79.266541 85.088631 -5.967530 89.960915 4.358285 89.997276 -6.526734 -0.736816 -0.312791 179.397858 90.000000 0.000000 -24.394104 86.092216 -65.600708 -89.905548 -10.455295 89.999535 8.514520 0.107753 -0.014839 180.245590 -90.000000 0.000000 
2.607922 92.560959 -16.019072 -1.634928 3.798390 -0.833453 -89.999992 -90.000000 0.000000 -0.136016 -0.091938 -0.667517 -0.457555 -0.290579 -2.223133 0.000000 0.000000 0.000000 0.000000 0.000000 0.000000 90.006813 -0.482148 -83.518433 21.260317 34.942501 69.797401 1.724073 18.508184 -6.200979 0.000000 0.000000 0.000000 -90.000732 0.392217 -84.729218 -14.933386 -42.020969 67.741310 -2.423983 -24.392246 -6.455116 0.000000 0.000000 0.000000 -78.192795 85.352783 -8.403316 89.940170 6.661417 89.997490 -7.298783 -1.349669 -0.625962 179.362579 90.000000 0.000000 -17.488857 86.085335 -72.352074 -89.907402 -10.252478 89.999443 8.442539 0.102949 -0.006737 180.239090 -90.000000 0.000000 
2.707204 92.542633 -16.074018 -1.660374 3.436705 -0.639773 -89.999992 -90.000000 0.000000 -0.154440 -0.052724 -0.737383 -0.516047 -0.157997 -2.455771 0.000000 0.000000 0.000000 0.000000 0.000000 0.000000 90.005371 -0.446024 -84.004044 20.572094 35.184814 70.186264 1.714508 18.434082 -6.196497 0.000000 0.000000 0.000000 -90.001015 0.417768 -84.386009 -15.191885 -41.694035 67.162064 -2.497298 -24.958994 -6.488280 0.000000 0.000000 0.000000 -76.208458 85.728996 -11.899761 89.916702 9.249323 89.998703 -8.001433 -1.709540 -0.825346 179.008698 90.000000 0.000000 -8.372826 85.964310 -81.244255 -89.910316 -9.929458 89.999359 8.308708 0.410513 -0.147666 180.232086 -90.000000 0.000000 
2.805286 92.515312 -16.147266 -1.678038 2.991474 -0.400532 -89.999992 -90.000000 0.000000 -0.169210 0.010506 -0.798026 -0.560211 0.054316 -2.657146 0.000000 0.000000 0.000000 0.000000 0.000000 0.000000 90.004364 -0.416602 -84.399490 19.836899 35.475899 70.544823 1.703693 18.348930 -6.191626 0.000000 0.000000 0.000000 -90.001419 0.439100 -84.099472 -15.374846 -41.446724 66.575157 -2.548177 -25.351879 -6.511323 0.000000 0.000000 0.000000 -73.492668 86.122696 -16.181705 89.891899 11.952011 90.001091 -8.457418 -1.909348 -0.931703 178.225418 90.000000 0.000000 -0.646378 85.783432 -88.782425 -89.912827 -9.653752 89.999283 8.155722 0.798256 -0.324122 180.252075 -90.000000 0.000000 
2.890767 92.482285 -16.249315 -1.637696 2.449746 -0.129792 -89.999992 -90.000000 0.000000 -0.174406 0.093329 -0.844662 -0.570574 0.330957 -2.811526 0.000000 0.000000 0.000000 0.000000 0.000000 0.000000 90.003685 -0.396034 -84.675957 18.996841 35.857105 70.829582 1.671663 18.084538 -6.179053 0.000000 0.000000 0.000000 -90.001816 0.455189 -83.883377 -15.518037 -41.239658 66.030823 -2.585403 -25.640114 -6.528084 0.000000 0.000000 0.000000 -69.382652 86.521027 -22.040737 89.864922 14.840279 90.004997 -8.694581 -2.057611 -1.004079 177.134933 90.000000 0.000000 5.492699 85.565689 -94.837189 -89.914848 -9.430606 89.999207 7.938809 1.192512 -0.496223 180.364868 -90.000000 0.000000 
2.991249 92.443962 -16.346165 -1.560985 1.793654 0.203196 -89.999992 -90.000000 0.000000 -0.165564 0.190650 -0.875415 -0.532816 0.654484 -2.912975 0.000000 0.000000 0.000000 0.000000 0.000000 0.000000 90.003227 -0.384227 -84.834671 18.215046 36.131668 71.015862 1.651788 17.920996 -6.171150 0.000000 0.000000 0.000000 -90.002106 0.465108 -83.750038 -15.734687 -40.924404 65.472939 -2.648938 -26.125229 -6.557472 0.000000 0.000000 0.000000 -61.333302 86.968628 -31.918734 89.836594 17.803446 90.010498 -8.788857 -1.957349 -0.961623 175.996262 90.000000 0.000000 11.081024 85.250977 -100.257858 -89.918968 -8.973137 89.999176 7.594911 1.719829 -0.717647 180.520767 -90.000000 0.000000 
3.086530 92.391930 -16.403111 -1.493228 1.093714 0.546312 -89.999992 -90.000000 0.000000 -0.141199 0.298299 -0.890985 -0.442577 1.010939 -2.964143 0.000000 0.000000 0.000000 0.000000 0.000000 0.000000 90.002930 -0.379886 -84.893181 17.674206 36.115486 71.134293 1.673940 18.112534 -6.178505 0.000000 0.000000 0.000000 -90.002205 0.468246 -83.707924 -15.923038 -40.631481 64.870987 -2.705968 -26.559036 -6.584021 0.000000 0.000000 0.000000 -48.820690 87.379242 -46.227631 89.806801 20.828552 90.017807 -8.818570 -1.510334 -0.757257 174.999481 90.000000 0.000000 16.068031 84.926064 -104.954620 -89.924332 -8.379457 89.999184 7.386471 2.280564 -0.945695 180.530365 -90.000000 0.000000 
3.114512 92.337097 -16.442860 -1.412120 0.303463 0.808991 -89.999992 -90.000000 0.000000 -0.102918 0.412703 -0.893925 -0.305749 1.388759 -2.973731 0.000000 0.000000 0.000000 0.000000 0.000000 0.000000 90.002831 -0.384313 -84.833801 17.169825 36.077129 71.261536 1.684270 18.204050 -6.181584 0.000000 0.000000 0.000000 -90.002060 0.464985 -83.751755 -15.890199 -40.619572 64.193993 -2.670996 -26.305372 -6.566298 0.000000 0.000000 0.000000 -34.778576 87.674362 -62.021835 89.777802 23.674070 90.026337 -8.618403 -0.912299 -0.465433 173.994690 90.000000 0.000000 20.245567 84.746071 -108.900108 -89.928055 -7.965735 89.999168 7.459778 2.778111 -1.136441 180.384247 -90.000000 0.000000 
